<svg height="46" viewBox="0 0 512 512" width="46" fill="#e86938" xmlns="http://www.w3.org/2000/svg"><g id="outline"><path d="m24 496h352a8 8 0 0 0 8-8v-68.686l23.514 23.514a39.393 39.393 0 0 1 10.112 16.489 39.757 39.757 0 0 0 38.34 28.683q1.418 0 2.855-.1a40.005 40.005 0 0 0 8.5-78.276 39.381 39.381 0 0 1 -16.488-10.111l-23.564-23.564a24.009 24.009 0 0 0 -.921-32.921l-7.03-7.03 18.343-18.343a8 8 0 0 0 0-11.314l-24-24a8 8 0 0 0 -11.314 0l-18.347 18.345v-196.686a8 8 0 0 0 -2.343-5.657l-80-80a8 8 0 0 0 -5.657-2.343h-272a8 8 0 0 0 -8 8v464a8 8 0 0 0 8 8zm438.8-71.026a24.006 24.006 0 1 1 -29.826 29.826 55.394 55.394 0 0 0 -14.146-23.281l-23.514-23.519 20.686-20.686 23.516 23.515a55.4 55.4 0 0 0 23.284 14.145zm-47.768-70.631a8.01 8.01 0 0 1 0 11.314l-41.376 41.373a8.007 8.007 0 0 1 -11.312 0l-7.03-7.03 52.686-52.686zm-7.032-55.03 12.687 12.687-100.687 100.687-12.687-12.687zm-104-256 52.687 52.687h-52.687zm-272-11.313h256v72a8 8 0 0 0 8 8h72v204.686l-77.657 77.657a8 8 0 0 0 0 11.314l24 24a8 8 0 0 0 11.314 0l18.343-18.343 7.029 7.029a23.925 23.925 0 0 0 16.971 7.018v54.639h-336z"/><path d="m136 160h128a8 8 0 0 0 8-8v-24a8 8 0 0 0 -8-8h-8v-24h8a8 8 0 0 0 3.578-15.155l-64-32a8 8 0 0 0 -7.156 0l-64 32a8 8 0 0 0 3.578 15.155h8v24h-8a8 8 0 0 0 -8 8v24a8 8 0 0 0 8 8zm104-40h-16v-24h16zm-32-24v24h-16v-24zm-8-31.056 30.111 15.056h-60.222zm-40 31.056h16v24h-16zm-16 40h112v8h-112z"/><path d="m48 176h304v16h-304z"/><path d="m48 208h304v16h-304z"/><path d="m48 240h304v16h-304z"/><path d="m200 304a80 80 0 1 0 80 80 80.091 80.091 0 0 0 -80-80zm0 144a64 64 0 1 1 64-64 64.072 64.072 0 0 1 -64 64z"/><path d="m184 404.687-18.343-18.344-11.314 11.314 24 24a8 8 0 0 0 11.314 0l56-56-11.314-11.314z"/><path d="m48 272h304v16h-304z"/></g></svg>